<?xml version="1.0" standalone="no"?>
<!DOCTYPE svg PUBLIC "-//W3C//DTD SVG 20010904//EN"
 "http://www.w3.org/TR/2001/REC-SVG-20010904/DTD/svg10.dtd">
<svg version="1.0" xmlns="http://www.w3.org/2000/svg"
 width="2176.000000pt" height="2176.000000pt" viewBox="0 0 2176.000000 2176.000000"
 preserveAspectRatio="xMidYMid meet">
<metadata>
Created by potrace 1.14, written by Peter Selinger 2001-2017
</metadata>
<g transform="translate(0.000000,2176.000000) scale(0.100000,-0.100000)"
fill="#000000" stroke="none">
<path d="M0 11032 l0 -3207 528 1 c290 1 530 2 535 3 4 0 7 1028 7 2283 l0
2282 25 -35 c13 -19 28 -38 33 -44 4 -5 37 -48 72 -95 36 -47 72 -92 80 -101
8 -10 26 -33 40 -54 14 -20 30 -42 35 -48 6 -7 26 -32 45 -57 19 -25 39 -50
45 -56 5 -6 17 -22 25 -34 8 -12 20 -28 26 -34 5 -6 79 -101 164 -211 85 -110
156 -202 160 -205 3 -3 32 -41 65 -85 32 -44 62 -82 65 -85 3 -3 28 -34 55
-70 27 -36 54 -70 60 -76 5 -6 20 -25 33 -41 45 -60 61 -53 157 77 27 36 52
67 55 70 3 3 34 43 70 90 35 47 67 87 70 90 3 3 19 23 36 45 97 127 449 581
454 585 3 3 28 34 55 70 27 36 52 67 55 70 4 4 73 89 92 115 40 52 78 95 79
88 0 -4 1 -1027 2 -2273 l2 -2265 525 0 526 0 0 3207 0 3208 -527 0 c-497 0
-527 -1 -542 -18 -10 -10 -17 -24 -17 -31 0 -7 -4 -9 -10 -6 -6 3 -10 2 -10
-3 0 -8 -29 -49 -78 -108 -9 -12 -26 -34 -37 -49 -11 -16 -24 -33 -30 -39 -5
-6 -23 -29 -39 -51 -17 -22 -32 -42 -35 -45 -4 -3 -28 -34 -56 -70 -27 -36
-58 -74 -67 -84 -10 -11 -18 -23 -18 -27 0 -5 -8 -16 -18 -26 -15 -15 -43 -50
-94 -118 -5 -5 -36 -46 -71 -90 -74 -95 -314 -403 -375 -484 -24 -31 -47 -57
-52 -59 -6 -2 -10 -8 -10 -13 0 -5 -7 -17 -16 -28 -18 -20 -44 -18 -44 4 0 7
-3 15 -8 17 -7 3 -41 43 -82 98 -14 18 -43 56 -66 84 -171 213 -244 306 -244
311 0 5 -20 28 -60 70 -11 12 -20 26 -20 32 0 6 -4 13 -9 15 -8 3 -79 90 -161
198 -26 35 -51 65 -72 90 -7 8 -25 31 -41 52 -15 21 -36 48 -46 60 -20 23
-135 169 -175 221 -11 15 -34 44 -50 63 l-29 34 -533 0 -534 0 0 -3208z"/>
<path d="M17920 14155 c-4 -5 -4 -19 0 -30 4 -11 4 -29 0 -41 -5 -11 -5 -27 0
-34 4 -7 5 -24 1 -39 -5 -14 -5 -38 -1 -52 4 -15 4 -32 0 -39 -4 -7 -4 -27 0
-46 4 -19 4 -36 0 -39 -5 -3 -5 -18 0 -34 4 -15 4 -34 0 -41 -4 -7 -4 -25 0
-40 4 -15 4 -33 0 -40 -4 -6 -4 -27 0 -46 4 -19 4 -36 0 -39 -5 -3 -5 -18 0
-34 4 -15 4 -34 0 -41 -4 -7 -4 -25 0 -40 4 -15 4 -33 0 -40 -4 -6 -4 -27 0
-46 4 -19 4 -36 0 -39 -5 -3 -5 -18 0 -34 4 -15 4 -34 0 -41 -4 -7 -4 -25 0
-40 4 -15 4 -33 0 -40 -4 -6 -4 -27 0 -46 4 -19 4 -36 0 -39 -5 -3 -5 -18 0
-34 4 -15 4 -34 0 -41 -4 -7 -4 -25 0 -40 4 -15 4 -33 0 -40 -4 -6 -4 -27 0
-46 4 -19 4 -36 0 -39 -5 -3 -5 -18 0 -34 4 -15 4 -34 0 -41 -4 -7 -4 -25 0
-40 4 -15 4 -33 0 -40 -4 -6 -4 -27 0 -46 4 -19 4 -36 0 -39 -5 -3 -5 -18 0
-34 4 -15 4 -34 0 -41 -4 -7 -4 -25 0 -40 4 -15 4 -33 0 -40 -4 -6 -4 -27 0
-46 4 -19 4 -36 0 -39 -5 -3 -5 -18 0 -34 4 -15 4 -34 0 -41 -4 -7 -4 -25 0
-40 4 -15 4 -33 0 -40 -4 -6 -4 -27 0 -46 4 -19 4 -36 0 -39 -5 -3 -5 -18 0
-34 4 -15 4 -34 0 -41 -4 -7 -4 -25 0 -40 4 -15 4 -33 0 -40 -4 -6 -4 -27 0
-46 4 -19 4 -36 0 -39 -5 -3 -5 -18 0 -34 4 -15 4 -34 0 -41 -4 -7 -4 -25 0
-40 4 -15 4 -33 0 -40 -4 -6 -4 -27 0 -46 4 -19 4 -34 0 -34 -4 0 -4 -16 0
-35 4 -19 4 -37 0 -40 -4 -3 -4 -20 0 -39 4 -19 4 -39 0 -46 -4 -7 -4 -27 0
-46 4 -19 4 -36 0 -39 -5 -3 -5 -18 0 -34 4 -15 4 -34 0 -41 -4 -6 -4 -27 0
-46 4 -19 4 -36 0 -39 -5 -3 -5 -18 0 -34 4 -15 4 -34 0 -41 -4 -7 -4 -25 0
-40 4 -15 4 -33 0 -40 -4 -6 -4 -27 0 -46 4 -19 4 -36 0 -39 -5 -3 -5 -18 0
-34 4 -15 4 -34 0 -41 -4 -7 -4 -25 0 -40 4 -15 4 -33 0 -40 -4 -6 -4 -27 0
-46 4 -19 4 -36 0 -39 -5 -3 -5 -18 0 -34 4 -15 4 -34 0 -41 -4 -7 -4 -25 0
-40 4 -15 4 -33 0 -40 -4 -6 -4 -27 0 -46 4 -19 4 -36 0 -39 -5 -3 -5 -18 0
-34 4 -15 4 -34 0 -41 -4 -7 -4 -25 0 -40 4 -15 4 -33 0 -40 -4 -6 -4 -27 0
-46 4 -19 4 -36 0 -39 -5 -3 -5 -18 0 -34 4 -15 4 -34 0 -41 -4 -7 -4 -25 0
-40 4 -15 4 -33 0 -40 -4 -6 -4 -27 0 -46 4 -19 4 -36 0 -39 -5 -3 -5 -18 0
-34 4 -15 4 -34 0 -41 -4 -7 -4 -25 0 -40 4 -15 4 -33 0 -40 -4 -6 -4 -27 0
-46 4 -19 4 -36 0 -39 -5 -3 -5 -18 0 -34 4 -15 4 -34 0 -41 -4 -7 -4 -25 0
-40 4 -15 4 -33 0 -40 -4 -6 -4 -27 0 -46 4 -19 4 -36 0 -39 -5 -3 -5 -18 0
-34 4 -15 4 -34 0 -41 -4 -7 -4 -25 0 -40 4 -15 4 -33 0 -40 -4 -6 -4 -27 0
-46 4 -19 4 -36 0 -39 -5 -3 -5 -18 0 -34 4 -15 4 -34 0 -41 -4 -7 -4 -25 0
-40 4 -15 4 -33 0 -40 -4 -6 -4 -27 0 -46 4 -19 4 -36 0 -39 -5 -3 -5 -18 0
-34 4 -15 4 -34 0 -41 -4 -7 -4 -25 0 -40 4 -15 4 -33 0 -40 -4 -7 -4 -25 0
-40 4 -15 4 -33 0 -40 -4 -7 -4 -25 0 -40 4 -15 4 -33 0 -40 -4 -6 -4 -27 0
-46 4 -19 4 -36 0 -39 -5 -3 -5 -18 0 -34 4 -15 4 -34 0 -41 -4 -7 -4 -25 0
-40 4 -15 4 -33 0 -40 -4 -6 -4 -27 0 -46 4 -19 4 -36 0 -39 -5 -3 -5 -18 0
-34 4 -15 4 -34 0 -41 -4 -7 -4 -25 0 -40 4 -15 4 -33 0 -40 -4 -6 -4 -27 0
-46 4 -19 4 -36 0 -39 -5 -3 -5 -18 0 -34 4 -15 4 -34 0 -41 -4 -7 -4 -25 0
-40 4 -15 4 -33 0 -40 -4 -6 -4 -27 0 -45 4 -18 4 -39 0 -46 -5 -7 -5 -22 0
-34 5 -12 5 -28 0 -35 -4 -7 -4 -25 0 -40 4 -15 4 -33 0 -40 -4 -6 -4 -27 0
-46 4 -18 5 -35 2 -38 -6 -7 -18 -7 523 -7 223 0 436 1 475 1 l70 0 0 2411
c-1 1327 1 2414 4 2416 3 3 89 -78 191 -179 103 -100 231 -226 284 -278 91
-89 391 -376 508 -486 157 -149 302 -287 362 -344 37 -36 103 -98 146 -139
l78 -73 0 -1664 0 -1664 534 0 533 0 0 103 c3 806 0 6299 -3 6304 -3 5 -243 8
-534 8 l-528 0 0 -753 c0 -413 -1 -752 -3 -752 -11 0 -62 46 -62 57 0 7 -3 12
-8 11 -4 -2 -45 33 -91 77 -192 184 -235 224 -415 398 -307 297 -345 334 -546
527 -255 245 -313 301 -388 374 l-62 61 -531 0 c-342 0 -534 -4 -539 -10z"/>
<path d="M8510 13280 c0 -3 -42 -6 -93 -7 -50 0 -112 -4 -137 -7 -25 -3 -63
-8 -85 -11 -22 -2 -50 -7 -62 -10 -33 -7 -64 -14 -98 -20 -80 -16 -339 -100
-362 -118 -7 -5 -13 -7 -13 -4 0 18 -419 -217 -450 -253 -3 -3 -28 -22 -55
-42 -87 -63 -197 -166 -322 -302 -28 -31 -49 -56 -46 -56 3 0 -6 -12 -20 -26
-76 -76 -327 -509 -327 -565 0 -8 -4 -19 -9 -24 -25 -28 -110 -341 -125 -465
-3 -19 -7 -55 -11 -80 -13 -100 -18 -302 -11 -410 7 -95 20 -201 32 -260 4
-19 8 -41 10 -49 1 -7 8 -35 14 -61 6 -26 13 -54 14 -61 2 -8 5 -21 8 -29 3
-8 15 -46 27 -85 43 -140 165 -408 207 -456 8 -8 14 -20 14 -24 0 -14 122
-187 190 -270 59 -72 282 -286 355 -342 96 -73 249 -173 263 -173 6 0 12 -3
14 -7 4 -10 197 -104 273 -133 33 -12 69 -26 80 -31 56 -22 248 -74 315 -84
25 -4 54 -9 65 -12 158 -33 554 -37 699 -7 12 2 37 7 56 10 30 5 83 16 186 39
35 8 227 72 274 92 137 56 418 211 428 235 2 5 8 8 13 8 6 0 15 5 22 10 7 6
37 30 67 53 30 23 69 53 85 67 53 44 275 271 275 280 0 6 5 10 11 10 6 0 16 6
24 13 7 6 23 19 36 29 13 9 65 46 114 83 50 36 101 74 113 83 13 9 42 31 65
48 23 17 78 57 122 89 44 33 82 63 83 67 2 4 8 8 13 8 8 0 29 15 124 88 6 4
26 19 45 32 19 13 40 28 45 33 11 9 296 218 435 319 47 34 120 88 162 119 l77
57 7 -41 c4 -23 8 -44 9 -47 1 -3 7 -32 14 -65 7 -33 16 -64 19 -70 4 -5 7
-14 7 -20 1 -24 18 -81 27 -92 6 -7 8 -13 5 -13 -19 0 169 -415 197 -432 6 -4
8 -8 3 -8 -7 0 104 -167 147 -222 11 -14 32 -41 46 -59 27 -37 247 -259 295
-299 16 -14 61 -48 100 -77 38 -29 75 -57 82 -63 7 -5 14 -10 17 -10 2 0 32
-18 65 -40 69 -46 268 -146 356 -179 33 -13 69 -27 80 -32 61 -27 331 -93 430
-105 199 -24 515 -24 635 0 8 1 38 6 65 10 55 9 211 44 235 53 8 3 20 7 25 8
109 25 464 180 473 206 2 5 12 9 23 9 10 0 19 5 19 10 0 6 7 10 15 10 8 0 15
4 15 8 0 5 11 14 25 20 54 25 227 158 334 257 73 68 69 64 131 135 30 35 60
68 66 74 6 6 38 50 72 96 34 47 65 90 69 95 9 10 40 62 76 125 79 139 197 414
197 459 0 9 5 22 12 29 7 7 9 12 6 12 -4 0 -2 15 3 33 6 17 12 43 15 57 3 14
10 43 15 65 5 22 12 54 14 70 3 17 7 46 11 65 17 102 25 379 13 495 -10 106
-19 177 -24 195 -2 8 -7 31 -10 50 -3 19 -15 71 -26 115 -25 98 -25 97 -31
115 -3 8 -16 44 -28 80 -12 36 -28 81 -36 100 -9 19 -19 44 -24 55 -32 79 -76
165 -84 165 -5 0 -6 3 -3 6 4 4 -2 19 -13 34 -11 16 -20 31 -20 33 0 7 -80
136 -95 154 -5 7 -16 19 -22 27 -7 8 -13 18 -13 21 0 29 -300 348 -400 425
-25 19 -50 39 -57 45 -7 5 -18 15 -25 21 -34 27 -168 114 -178 114 -5 0 -10 5
-10 10 0 6 -6 10 -14 10 -8 0 -16 4 -18 8 -9 23 -312 158 -453 202 -69 21 -84
25 -126 35 -11 2 -28 6 -37 9 -9 3 -30 8 -47 11 -16 2 -41 7 -55 10 -14 3 -43
7 -65 10 -22 3 -57 8 -77 11 -21 2 -78 7 -128 9 -49 2 -94 7 -100 10 -5 3 -10
2 -10 -3 0 -6 -14 -7 -35 -2 -19 4 -35 5 -35 1 0 -8 -208 -6 -216 2 -4 3 -14
2 -23 -3 -10 -5 -23 -5 -31 0 -8 5 -21 5 -30 0 -9 -5 -22 -5 -30 0 -7 4 -23 5
-35 0 -12 -5 -27 -5 -34 -1 -6 4 -31 5 -55 1 -24 -3 -51 -3 -62 0 -10 4 -31 4
-46 -1 -16 -4 -28 -4 -28 1 0 4 -15 4 -34 0 -19 -4 -40 -4 -47 1 -7 4 -20 4
-30 -1 -9 -5 -19 -7 -22 -3 -8 7 -207 10 -207 3 0 -7 -69 -4 -76 3 -3 3 -17 2
-30 -3 -14 -6 -26 -6 -29 0 -3 5 -15 6 -28 1 -12 -5 -34 -5 -49 0 -15 4 -30 4
-33 -1 -3 -5 -13 -6 -21 -3 -20 7 -214 10 -214 2 0 -6 -70 -2 -77 5 -3 2 -18
0 -34 -4 -16 -5 -29 -5 -29 0 0 4 -15 4 -34 0 -19 -4 -40 -4 -47 1 -7 4 -20 4
-29 -1 -9 -5 -22 -5 -28 -1 -7 4 -35 5 -62 1 -27 -4 -55 -3 -62 1 -6 4 -19 4
-28 -1 -9 -5 -22 -5 -30 0 -8 5 -21 5 -30 0 -9 -5 -22 -5 -30 0 -8 5 -21 5
-31 0 -9 -5 -19 -6 -23 -3 -11 11 -79 4 -87 -9 -4 -6 -4 -19 1 -28 5 -9 5 -22
0 -29 -4 -8 -5 -25 -1 -40 7 -28 6 -90 -3 -98 -2 -3 -1 -15 4 -28 5 -13 6 -26
3 -29 -7 -7 -8 -130 -1 -142 3 -5 2 -18 -2 -29 -4 -11 -4 -29 0 -41 5 -11 5
-27 0 -34 -4 -7 -4 -25 0 -41 5 -15 6 -30 3 -33 -5 -5 -7 -125 -3 -143 1 -5 1
-12 0 -18 -5 -22 -2 -114 5 -124 3 -6 2 -11 -4 -11 -6 0 -6 -11 -1 -30 5 -17
5 -30 0 -30 -5 0 -5 -13 0 -30 5 -17 5 -30 0 -30 -5 0 -5 -13 0 -30 5 -16 5
-30 1 -30 -4 0 -6 -13 -3 -29 3 -25 -3 -34 -55 -72 -32 -24 -60 -46 -63 -49
-3 -3 -22 -16 -42 -30 -21 -14 -38 -28 -38 -32 0 -5 -7 -8 -15 -8 -8 0 -15 -3
-15 -7 0 -5 -27 -26 -60 -48 -33 -22 -60 -43 -60 -47 0 -5 -4 -8 -10 -8 -9 0
-52 -31 -421 -305 -89 -66 -167 -122 -173 -124 -6 -2 -13 -7 -16 -11 -3 -3
-23 -19 -45 -35 -22 -17 -43 -34 -47 -40 -11 -16 -16 -4 -36 95 -21 98 -48
204 -59 230 -3 8 -7 17 -8 20 -12 51 -89 242 -115 290 -5 8 -25 47 -45 85 -21
39 -44 77 -51 86 -8 8 -14 19 -14 22 0 8 -74 115 -124 183 -85 111 -238 273
-341 359 -27 22 -53 45 -59 50 -13 12 -34 27 -160 112 -81 54 -333 192 -371
203 -5 1 -20 6 -31 10 -158 60 -374 120 -494 135 -25 3 -61 8 -80 11 -19 3
-73 7 -120 9 -47 2 -85 4 -85 5 0 1 -17 2 -38 3 -20 1 -37 0 -37 -3z m274
-1255 c195 -51 341 -137 489 -288 53 -54 97 -105 97 -113 0 -8 4 -14 8 -14 5
0 15 -12 23 -27 8 -16 17 -30 20 -33 5 -4 71 -138 75 -150 0 -3 3 -12 7 -20
16 -40 35 -109 42 -150 4 -25 9 -54 12 -65 14 -65 8 -260 -12 -342 -3 -13 -7
-33 -10 -44 -8 -37 -26 -92 -41 -126 -8 -17 -14 -36 -14 -42 0 -6 -5 -11 -10
-11 -6 0 -9 -3 -8 -7 4 -15 -52 -112 -103 -180 -80 -107 -188 -203 -314 -280
-51 -32 -183 -89 -225 -98 -8 -1 -34 -8 -57 -14 -23 -6 -64 -14 -90 -18 -56
-7 -235 -7 -278 0 -56 9 -100 18 -117 23 -9 3 -25 7 -35 9 -10 2 -31 8 -48 15
-16 6 -30 10 -30 9 0 -1 -11 4 -25 11 -14 8 -27 15 -30 15 -12 2 -117 58 -131
71 -8 8 -21 14 -27 14 -7 0 -12 4 -12 8 0 4 -13 15 -29 25 -26 15 -157 141
-186 179 -110 141 -184 312 -213 493 -8 53 -8 249 0 305 11 69 47 201 59 216
6 8 8 14 5 14 -14 0 86 176 139 245 156 203 387 343 645 389 118 21 304 13
424 -19z m5376 15 c73 -15 152 -40 168 -53 6 -5 12 -6 12 -2 0 7 180 -86 203
-105 7 -5 41 -33 77 -62 36 -29 72 -62 82 -73 9 -11 30 -36 48 -55 59 -65 163
-237 175 -289 3 -9 12 -36 21 -61 52 -145 65 -369 29 -525 -35 -152 -111 -314
-200 -425 -33 -40 -138 -143 -173 -170 -19 -14 -39 -30 -45 -35 -20 -18 -190
-115 -204 -117 -5 0 -19 -5 -33 -10 -204 -77 -467 -83 -673 -13 -111 37 -159
61 -272 134 -91 59 -195 163 -260 261 -16 25 -32 47 -35 50 -9 9 -59 114 -79
167 -20 51 -49 155 -57 203 -9 52 -11 261 -3 302 5 24 11 59 14 79 11 92 101
294 177 396 51 70 192 210 219 218 10 4 19 10 19 13 0 4 17 16 38 27 20 11 39
23 42 26 3 4 37 21 75 39 39 17 77 35 85 39 8 4 29 4 45 1 17 -4 40 -3 52 1
13 5 25 4 29 -2 9 -15 34 9 27 27 -3 8 -4 14 -2 14 30 3 85 13 87 15 9 8 263
-4 312 -15z"/>
</g>
</svg>
